<?xml version="1.0" standalone="no"?><!DOCTYPE svg PUBLIC "-//W3C//DTD SVG 1.1//EN" "http://www.w3.org/Graphics/SVG/1.1/DTD/svg11.dtd"><svg t="1648035109825" class="icon" viewBox="0 0 1024 1024" version="1.1" xmlns="http://www.w3.org/2000/svg" p-id="13187" xmlns:xlink="http://www.w3.org/1999/xlink" width="16" height="16"><defs><style type="text/css"></style></defs><path d="M509.088914 484.191086c98.450286 0 149.972114-146.007771 149.972115-224.285257 0-92.16-67.291429-167.146057-149.972115-167.146058-82.709943 0-150.016 74.986057-150.016 167.146058 0 78.262857 51.521829 224.285257 150.016 224.285257z m0-332.917029c50.512457 0 91.457829 48.625371 91.457829 108.631772 0 59.977143-40.945371 165.770971-91.457829 165.770971-50.541714 0-91.487086-105.793829-91.487085-165.770971 0-60.0064 40.945371-108.631771 91.487085-108.631772zM659.748571 586.503314c-10.166857-7.285029-22.147657-10.5472-34.143085-10.5472-10.898286 0-21.825829 3.2768-31.422172 9.391543-25.892571 16.515657-55.310629 25.336686-85.109028 25.336686-29.783771 0-59.216457-8.660114-85.109029-25.175772a58.411886 58.411886 0 0 0-31.4368-9.098971c-11.9808 0-23.9616 3.6864-34.128457 10.986057-75.410286 54.1696-120.466286 187.0848-120.466286 286.0032 0 32.314514 26.199771 56.7296 58.514286 56.7296h425.296457c32.314514 0 58.514286-24.415086 58.514286-56.7296-0.029257-98.9184-45.085257-232.725943-120.510172-286.895543z m-363.329828 285.110857c0-87.771429 38.224457-196.900571 96.080457-238.445714 34.274743 21.796571 74.064457 34.377143 116.560457 34.377143 42.510629 0 82.314971-12.565943 116.545829-34.377143 57.856 41.545143 96.109714 150.674286 96.109714 238.445714H296.418743z" fill="#e6e6e6" p-id="13188"></path><path d="M452.315429 693.262629a158.793143 158.793143 0 0 1-25.9072-13.385143 14.613943 14.613943 0 0 0-16.398629 0.453485c-44.821943 32.226743-64.833829 79.345371-64.833829 152.766172a14.628571 14.628571 0 1 0 29.257143 0c0-59.406629 13.604571-96.914286 45.143772-123.216457 7.109486 3.9936 14.394514 7.533714 21.796571 10.517943a14.628571 14.628571 0 0 0 10.942172-27.136zM509.059657 704.3072a159.451429 159.451429 0 0 1-14.5408-0.702171 14.628571 14.628571 0 0 0-2.691657 29.140114c5.690514 0.526629 11.424914 0.8192 17.232457 0.8192a14.628571 14.628571 0 1 0 0-29.257143zM846.511543 597.035886c-8.338286-4.827429-19.3536-4.900571-28.072229-0.789943-3.818057 1.799314-18.197943 5.485714-25.921828 7.460571-9.757257 2.545371-18.197943 4.578743-24.122515 6.831543a28.993829 28.993829 0 0 0-17.071542 37.449143c5.675886 15.111314 22.528 22.279314 37.6832 16.647314 2.984229-1.1264 11.381029-4.213029 18.139428-5.924571 7.8848-2.062629 14.672457-5.646629 20.509257-7.358172 45.7728 36.483657 80.910629 132.5056 89.8048 191.019886h-82.563657a29.257143 29.257143 0 0 0 0 58.514286h114.015086c16.149943 0 29.257143-9.493943 29.257143-25.658514 0-83.6608-51.287771-231.424-131.657143-278.191543zM244.516571 648.309029a29.374171 29.374171 0 0 0-17.115428-37.770972c-1.857829-0.702171-3.101257-1.857829-6.407314-4.461714-3.598629-2.794057-8.513829-7.0656-15.330743-10.620343-8.879543-4.622629-19.514514-5.251657-28.189257-0.2048-80.354743 46.767543-131.642514 196.315429-131.642515 279.976229 0 16.149943 13.1072 25.643886 29.257143 25.643885h57.636572a29.257143 29.257143 0 0 0 0-58.514285H106.525257c8.645486-58.514286 42.057143-149.328457 85.942857-187.816229 3.832686 2.545371 8.4992 8.733257 14.365257 10.927543a29.257143 29.257143 0 0 0 37.6832-17.159314zM288.270629 528.032914c2.911086 0.365714 6.173257 0.570514 9.669485 0.570515 24.8832 0 62.741943-10.532571 89.2928-50.351543a29.257143 29.257143 0 1 0-48.683885-32.446172c-17.6128 26.433829-41.150171 24.429714-43.183543 24.151772a28.672 28.672 0 0 0-4.754286-0.380343c-22.513371 0-62.200686-78.921143-62.200686-136.513829 0-43.768686 27.896686-79.374629 62.200686-79.374628a29.257143 29.257143 0 0 0 0-58.514286c-66.56 0-120.714971 61.864229-120.714971 137.888914 0 68.008229 44.880457 192.365714 118.3744 194.9696zM636.430629 437.672229a29.227886 29.227886 0 0 0-8.118858 40.565028c26.536229 39.848229 64.394971 50.351543 89.2928 50.351543 3.510857 0 6.773029-0.2048 9.684115-0.570514 73.479314-2.603886 118.3744-126.961371 118.3744-194.984229 0-76.024686-54.154971-137.888914-120.714972-137.888914a29.257143 29.257143 0 0 0 0 58.514286c34.289371 0 62.200686 35.605943 62.200686 79.374628 0 57.607314-39.687314 136.513829-62.200686 136.513829-1.594514 0-3.203657 0.131657-4.768914 0.380343-0.234057 0.087771-24.897829 3.247543-43.168914-24.151772a29.257143 29.257143 0 0 0-40.579657-8.104228z" fill="#e6e6e6" p-id="13189"></path></svg>