<?xml version="1.0" standalone="no"?><!DOCTYPE svg PUBLIC "-//W3C//DTD SVG 1.1//EN" "http://www.w3.org/Graphics/SVG/1.1/DTD/svg11.dtd"><svg t="1648035132449" class="icon" viewBox="0 0 1126 1024" version="1.1" xmlns="http://www.w3.org/2000/svg" p-id="13773" xmlns:xlink="http://www.w3.org/1999/xlink" width="17.59375" height="16"><defs><style type="text/css"></style></defs><path d="M402.0224 0.0512h487.424c53.0944 0 98.816 18.3296 135.68 56.9856a173.056 173.056 0 0 1 46.1824 89.344c2.4064 13.312 3.584 26.7264 3.6352 40.2432 0.3072 46.336 0.3072 92.672 0.1536 139.008l-0.3072 50.2784c27.4432 21.504 44.1856 51.0976 50.0736 88.832 1.024 6.4512 1.4848 13.0048 1.4848 19.5584l0.0512 141.824c0 47.2576-0.1024 94.5152-0.4096 141.824-0.2048 31.488-11.8784 59.392-32 83.1488-27.136 32.1024-61.4912 47.3088-102.0416 47.7696l-8.192-0.1024c-8.9088 0-8.9088 1.3824-8.9088 12.5952l0.1536 37.5296c0 6.2464 0 12.544-0.1536 18.7904-0.3584 21.76-8.9088 38.912-27.9552 49.5616a50.9952 50.9952 0 0 1-47.9232 1.4848 427.6224 427.6224 0 0 1-49.2544-28.16l-135.2704-86.8352a24.832 24.832 0 0 0-12.6464-3.7376c-66.5088-0.2048-133.0176-0.1024-199.5776-0.1536-35.4304 0-65.3312-10.3424-89.4464-31.232l-6.7584-6.2976c-24.1152 14.848-48.128 29.8496-72.5504 44.288a114.688 114.688 0 0 1-46.1824 14.6432c-32.7168 3.6352-64.4608-21.1456-67.1744-54.0672a454.4 454.4 0 0 1-1.28-33.5872l-0.1536-22.4256c-0.256-20.1216 0-40.2432 0-61.6448l-6.144 0.1024c-1.024 0-2.048 0-2.9696-0.1024-21.8624-1.28-44.1856-0.3072-65.536-4.352-69.632-13.2096-127.4368-71.68-140.3904-140.5952a223.232 223.232 0 0 1-3.4304-40.96L0 186.368C0 128.3584 21.4016 80.2304 65.4336 43.008a170.1376 170.1376 0 0 1 107.52-41.6256c17.92-0.512 35.8912-0.512 53.76-0.0512a27.648 27.648 0 0 1 26.368 25.856 28.1088 28.1088 0 0 1-21.0432 29.7984 71.936 71.936 0 0 1-12.6464 0.8704c-20.48 0.8192-41.216 0-61.44 2.816-52.7872 7.5264-97.0752 57.1904-100.2496 110.7456-0.6144 10.5984-0.9728 21.248-1.024 31.8976v358.7584c0 44.3904 16.9984 80.384 53.0432 106.752 22.1696 16.1792 47.5136 22.528 74.5472 22.7328l27.392 0.1024 64.2048-0.1024v160.0512c0 12.6464 2.8672 15.1552 14.848 10.752 9.3184-3.3792 18.2784-7.68 26.6752-12.9024l56.32-34.9184a297.984 297.984 0 0 0-2.816-6.2464L358.4 816.3328c11.3152-8.3968 30.9248-21.0432 45.6192-30.4128l14.9504-9.4208 52.9408-33.8944-24.2688 15.5648-24.2688 15.5648c-3.3792 2.1504-4.5056 4.0448-3.3792 8.448l0.9216 2.9184 20.1216-12.4928c41.216-25.6 82.432-51.3024 123.5968-76.9536a27.3408 27.3408 0 0 1 13.7728-3.9424c103.6288-0.2048 207.3088-0.3072 310.9888-0.2048 25.2416 0 49.3056-4.9664 70.656-19.0464 34.2016-22.528 54.3232-53.9136 57.7024-95.232 0.7168-9.216 0.9216-18.432 0.9216-27.648l0.0512-139.8272-2.816-1.1264c-13.0048-4.2496-26.7264-3.9424-40.3456-4.0448-4.4032 0-6.2976 1.0752-6.9632 4.1472L969.4208 307.2l-0.1536 31.5392c0 6.3488 1.6896 8.4992 7.0144 8.4992l1.4336-0.0512c13.9264-0.768 27.648-0.256 41.0624 2.3552l-0.1024-162.304c0-30.208-7.68-57.9584-26.9312-81.92-26.3168-32.5632-60.7232-47.616-102.0416-47.616H401.6128c-8.192 0-16.0256-0.4096-22.6816-5.8368a28.928 28.928 0 0 1-9.9328-31.7952c3.2256-10.6496 13.9776-18.8928 26.624-19.968 2.1504-0.2048 4.3008 0 6.4 0z m668.7744 600.064l1.5872-10.5472a177.664 177.664 0 0 1-31.8976 83.0976 185.344 185.344 0 0 1-36.096 36.7616c-6.4512 4.9664-13.2096 9.728-20.224 14.336-29.0816 17.5104-61.0816 24.832-95.2832 24.7296-97.9456-0.2048-195.9424-0.2048-293.888 0a24.32 24.32 0 0 0-11.9808 2.8672l-25.344 15.616-55.0912 34.2016c-9.216 5.632-30.5152 18.6368-47.616 29.7984 11.776 7.5264 25.6 11.776 40.3968 11.776l79.2576 0.3072c39.6288 0.1024 79.2576 0 118.8864-0.7168 20.736-0.3584 37.7344 5.12 54.9376 16.5888 50.5344 33.6384 101.888 65.8944 152.9856 98.6112 5.0176 3.2256 10.496 5.632 16.8448 9.0624v-123.7504h72.3456c45.0048-0.1024 79.5648-34.2016 79.872-80.6912 0.256-54.016 0.3584-108.032 0.3072-162.048z m-200.6016-245.6576c16.0768 0 29.0816 13.4656 29.0816 30.0032a29.5424 29.5424 0 0 1-29.0816 30.0544h-249.5488a29.5424 29.5424 0 0 1-29.0816-30.0544c0-16.5376 13.056-30.0032 29.0816-30.0032h249.5488z m0-147.2c16.0768 0 29.0816 13.4144 29.0816 30.0032a29.5424 29.5424 0 0 1-29.0816 30.0544H515.584a28.928 28.928 0 0 1-25.1904-15.0528 30.8736 30.8736 0 0 1 0-30.0032 28.928 28.928 0 0 1 25.1904-15.0016h354.6112z" fill="#e6e6e6" opacity=".2" p-id="13774"></path></svg>