<?xml version="1.0" standalone="no"?><!DOCTYPE svg PUBLIC "-//W3C//DTD SVG 1.1//EN" "http://www.w3.org/Graphics/SVG/1.1/DTD/svg11.dtd"><svg t="1648035189739" class="icon" viewBox="0 0 1024 1024" version="1.1" xmlns="http://www.w3.org/2000/svg" p-id="19452" xmlns:xlink="http://www.w3.org/1999/xlink" width="16" height="16"><defs><style type="text/css"></style></defs><path d="M896 896H96a32 32 0 0 1-32-32V224a32 32 0 0 1 64 0v608h768a32 32 0 1 1 0 64zM247.008 640a32 32 0 0 1-20.992-56.192l200.992-174.24a32 32 0 0 1 42.272 0.288l172.128 153.44 229.088-246.304a32 32 0 0 1 46.88 43.616L666.944 629.824a31.936 31.936 0 0 1-44.704 2.08l-174.56-155.52-179.744 155.84A31.872 31.872 0 0 1 247.008 640z" p-id="19453" fill="#e6e6e6"></path></svg>