<?xml version="1.0" standalone="no"?><!DOCTYPE svg PUBLIC "-//W3C//DTD SVG 1.1//EN" "http://www.w3.org/Graphics/SVG/1.1/DTD/svg11.dtd"><svg t="1648033392026" class="icon" viewBox="0 0 1024 1024" version="1.1" xmlns="http://www.w3.org/2000/svg" p-id="4354" xmlns:xlink="http://www.w3.org/1999/xlink" width="32" height="32"><defs><style type="text/css"></style></defs><path d="M784.520533 648.055467a49.015467 49.015467 0 0 0 30.3104-87.381334l0.273067-0.341333a490.359467 490.359467 0 0 0-124.859733-70.4512 268.765867 268.765867 0 0 0 94.208-204.458667 269.448533 269.448533 0 0 0-538.897067 0c0 81.851733 36.6592 155.0336 94.276267 204.458667a489.813333 489.813333 0 0 0-314.709334 456.977067v0.136533a49.083733 49.083733 0 0 0 97.962667 0A392.3968 392.3968 0 0 1 515.072 555.008c88.541867 0 170.120533 29.832533 235.793067 79.598933a48.810667 48.810667 0 0 0 33.655466 13.380267z m-269.448533-191.146667A171.690667 171.690667 0 0 1 343.586133 285.354667a171.690667 171.690667 0 0 1 171.485867-171.485867 171.690667 171.690667 0 0 1 171.4176 171.485867 171.690667 171.690667 0 0 1-171.4176 171.485866z m456.2944 355.328h-73.454933v-73.454933a36.727467 36.727467 0 0 0-73.5232 0v73.454933H750.933333a36.727467 36.727467 0 1 0 0 73.5232h73.454934v73.454933a36.727467 36.727467 0 1 0 73.5232 0v-73.454933h73.454933a36.727467 36.727467 0 0 0 0-73.5232z" p-id="4355" fill="#e6e6e6"></path></svg>