<?xml version="1.0" standalone="no"?><!DOCTYPE svg PUBLIC "-//W3C//DTD SVG 1.1//EN" "http://www.w3.org/Graphics/SVG/1.1/DTD/svg11.dtd"><svg t="1649408959743" class="icon" viewBox="0 0 1024 1024" version="1.1" xmlns="http://www.w3.org/2000/svg" p-id="2683" xmlns:xlink="http://www.w3.org/1999/xlink" width="32" height="32"><defs><style type="text/css"></style></defs><path d="M964.685714 330.4l-290.171428-42.171429L544.8 25.257143c-3.542857-7.2-9.371429-13.028571-16.571429-16.571429-18.057143-8.914286-40-1.485714-49.028571 16.571429L349.485714 288.228571l-290.171428 42.171429c-8 1.142857-15.314286 4.914286-20.914286 10.628571a36.628571 36.628571 0 0 0 0.685714 51.771429l209.942857 204.685714-49.6 289.028572a36.514286 36.514286 0 0 0 53.028572 38.514285L512 788.571429l259.542857 136.457142c7.085714 3.771429 15.314286 5.028571 23.2 3.657143 19.885714-3.428571 33.257143-22.285714 29.828572-42.171428l-49.6-289.028572 209.942857-204.685714c5.714286-5.6 9.485714-12.914286 10.628571-20.914286 3.085714-20-10.857143-38.514286-30.857143-41.485714z" p-id="2684" fill="#d81e06"></path></svg>